<svg xmlns="http://www.w3.org/2000/svg" width="232.292" height="168" viewBox="0 0 232.292 168"><path d="M110.315 63.454c-1.034.451-2.085 1.762-2.085 2.604 0 .317.3.496.831.496 1.526 0 .773.998-1.22 1.614-1.014.314-2.472.939-3.241 1.39-2.93 1.717-5.785 5.705-6.284 8.779l-.185 1.142h26.972l-.22-1.211c-.541-2.974-2.854-6.37-5.677-8.325-.748-.519-2.323-1.254-3.502-1.636-1.347-.436-2.182-.889-2.247-1.222-.076-.38.13-.528.727-.528.458 0 .831-.152.831-.339 0-.881-1.119-2.341-2.111-2.754-1.315-.549-1.34-.549-2.588-.004M75.428 81.255c0 9.773.04 13.817.091 8.989s.05-12.826 0-17.769-.091-.991-.091 8.78m22.913 2.805c.307 1.533 1.67 4.351 2.79 5.764.543.686 1.856 1.825 2.917 2.536 6.916 4.62 15.984 2.182 19.785-5.319.452-.892.922-2.16 1.045-2.815l.224-1.195H98.134zm-9.069 20.536c4.232.051 11.066.051 15.185 0s.657-.093-7.696-.093-11.721.041-7.489.093m38.1 0c2.62.054 6.909.054 9.531 0s.476-.098-4.766-.098-7.386.044-4.766.098" fill="#f9f8fa" fill-rule="evenodd"/><path d="m98.625 54.114-1.85 3.715h-7.939c-7.92 0-7.944.003-9.64.848-1.108.552-2.002 1.302-2.566 2.157l-.867 1.309-.098 18.278c-.068 12.453.012 18.659.25 19.474.455 1.556 1.717 3.034 3.269 3.825 1.204.614 2.102.632 32.348.625 29.555-.007 31.174-.037 32.401-.604 1.564-.722 2.548-1.745 3.215-3.342.431-1.031.501-3.688.501-19.262V63.071l-.899-1.721c-.729-1.394-1.228-1.893-2.622-2.622l-1.723-.899h-15.933l-1.849-3.715-1.849-3.715h-22.299zm-17.708 9.093c-1.043 1.126-1.048 2.689-.012 3.892.777.904.794.907 4.82.907 3.831 0 4.083-.04 4.874-.783 1.137-1.069 1.156-2.963.04-4.078-.759-.759-.972-.794-4.862-.794-3.985 0-4.084.018-4.86.855m29.4.245c-1.034.451-2.085 1.762-2.085 2.604 0 .317.3.496.831.496 1.526 0 .773.998-1.22 1.614-1.014.314-2.472.939-3.241 1.39-2.93 1.717-5.785 5.705-6.284 8.779l-.185 1.142h26.972l-.22-1.211c-.541-2.974-2.854-6.37-5.677-8.325-.748-.519-2.323-1.254-3.502-1.636-1.347-.436-2.182-.889-2.247-1.222-.076-.38.13-.528.727-.528.458 0 .831-.152.831-.339 0-.881-1.119-2.341-2.111-2.754-1.315-.549-1.34-.549-2.588-.004M98.344 84.063c.307 1.533 1.67 4.351 2.79 5.764.543.686 1.856 1.825 2.917 2.536 6.916 4.62 15.984 2.182 19.785-5.319.452-.892.922-2.16 1.045-2.815l.224-1.195H98.134zm2.982 22.401c-.658.658-.163 1.768.791 1.768.772 0 1.175-.859.734-1.558-.463-.734-.935-.799-1.525-.21m15.631 4.127c0 5.015.12 5.395 1.715 5.395.78 0 .895-.097.676-.566-.145-.311-.317-2.565-.382-5.008l-.119-4.443h-1.89zm10.215-4.127c-.658.658-.163 1.768.791 1.768.772 0 1.175-.859.734-1.558-.463-.734-.935-.799-1.525-.21m-33.475 5v4.523h.969c.947 0 .969-.036.969-1.615 0-1.608.006-1.615 1.049-1.616 2.414-.003 4.013-2.116 3.158-4.177-.502-1.21-1.557-1.637-4.061-1.637h-2.084zm1.939-1.615c0 1.395.267 1.543 1.756.976 1.502-.571.864-2.269-.852-2.269-.839 0-.904.093-.904 1.293m5.492 2.584v3.554h1.939v-7.108h-1.939zm2.788-3.299c-.087.141.245.903.737 1.694l.896 1.438-.918 1.492c-1.123 1.825-1.146 2.228-.129 2.228.534 0 .975-.314 1.362-.969.315-.534.655-.969.756-.969s.441.437.756.969c.389.657.827.969 1.362.969 1.001 0 .991-.353-.064-2.23l-.853-1.517.853-1.351c1.061-1.68 1.067-2.009.04-2.009-.563 0-1 .308-1.426 1.008l-.614 1.008-.521-1.008c-.366-.707-.755-1.008-1.302-1.008-.429 0-.852.115-.939.256m7.147.12c-.922.337-1.083.755-.59 1.535.243.383.451.389 1.309.033.885-.366 1.091-.353 1.553.111.495.495.474.534-.296.534-.455 0-1.323.332-1.927.737-.852.571-1.12.996-1.195 1.885-.118 1.392.501 2.009 1.963 1.957a82 82 0 0 1 2.414-.033l1.373.003-.008-1.871c-.011-2.447-.465-4.338-1.167-4.85-.658-.483-2.167-.498-3.429-.037m10.015.044c-.929.366-1.072.729-.59 1.491.241.38.454.387 1.282.044 1.027-.426 1.974-.283 1.974.299 0 .184-.328.333-.727.335-1.112.001-2.783 1.173-3.021 2.113-.437 1.738 1.244 3.23 2.74 2.429.326-.174 1.123-.232 1.77-.127l1.177.191v-2.255c0-2.573-.448-4.162-1.305-4.621-.743-.397-2.143-.353-3.299.104m5.896 3.133v3.554h1.939v-7.108h-1.939zm3.231 0v3.554h1.939v-2.384c0-2.467.434-3.383 1.423-3.003.46.177.838-.393.838-1.262 0-.568-1.645-.621-2.197-.071-.301.301-.389.301-.389 0 0-.214-.364-.389-.807-.389h-.807zm-17.851.672c-.738.431-.729 1.267.017 1.267.68 0 1.356-.596 1.356-1.195 0-.498-.588-.528-1.373-.071m10.177-.017c-.798.321-1 1.282-.268 1.282.89 0 1.481-.4 1.481-1.004 0-.675-.144-.708-1.211-.279" fill="#6243a3" fill-rule="evenodd"/></svg>